<?xml version="1.0" standalone="no"?><!DOCTYPE svg PUBLIC "-//W3C//DTD SVG 1.1//EN" "http://www.w3.org/Graphics/SVG/1.1/DTD/svg11.dtd"><svg t="1760110082609" class="icon" viewBox="0 0 1024 1024" version="1.1" xmlns="http://www.w3.org/2000/svg" p-id="5285" xmlns:xlink="http://www.w3.org/1999/xlink" width="200" height="200"><path d="M990.73312 306.653c-2.624-2.624-254.57-254.32-279.19-278.44-0.875-0.875-1.625-1.625-2.625-2.375-45.74-37.242-111.6-33.868-153.217 7.874-35.242 35.117-33.243 82.232-31.993 112.85 0.125 7.874 0.375 15.997 0.375 23.495 0 32.618-30.744 79.858-78.233 120.35-49.615 42.366-106.728 68.235-139.096 62.986-7.623-1.25-14.622-1.874-20.87-2.374-3-0.25-5.624-0.5-8.248-0.75-152.718-37.867-221.453 62.362-229.451 74.984-11.623 20.246-8.499 45.74 7.873 61.987l166.964 166.964-212.97 288.313c-15.122 20.246-12.997 48.115 5.124 66.361 9.998 9.998 22.995 15.122 35.992 15.122 10.498 0 20.996-3.25 29.869-9.998L372.35012 803.547l164.964 164.965c16.622 16.621 42.366 19.746 62.987 7.248 11.498-7.248 111.476-75.484 74.61-225.077-0.376-2.5-2.5-20.62-3.625-30.868-2.625-31.993 28.619-103.353 79.358-158.591 35.992-39.117 72.86-60.737 103.728-60.737 7.498 0 15.621 0.125 22.995 0.375 31.243 1.374 78.483 3.374 113.6-31.743 21.62-21.62 33.618-50.365 33.493-81.108-0.109-30.744-11.997-59.612-33.727-81.358z" fill="#515151" p-id="5286" data-spm-anchor-id="a313x.search_index.0.i0.12803a816xpiAY" class="selected"></path></svg>