<?xml version="1.0" standalone="no"?><!DOCTYPE svg PUBLIC "-//W3C//DTD SVG 1.1//EN" "http://www.w3.org/Graphics/SVG/1.1/DTD/svg11.dtd"><svg t="1760110174068" class="icon" viewBox="0 0 1024 1024" version="1.1" xmlns="http://www.w3.org/2000/svg" p-id="8678" xmlns:xlink="http://www.w3.org/1999/xlink" width="200" height="200"><path d="M934.225735 818.80007L627.061161 511.562801l306.226695-306.513383c31.676964-31.752732 31.750684-83.249044 0-114.998704-31.609388-31.680036-83.172253-31.680036-114.928056 0.072696L512.138225 396.566145 206.270914 90.412146c-31.896076-31.750684-83.465084-31.750684-115.069353 0-31.604268 31.74966-31.604268 83.245972 0 114.995632l306.008607 306.153999-306.732493 306.87891c-31.889932 31.889932-31.889932 83.391364-0.072696 115.069352 31.682084 31.82338 83.178396 31.82338 114.92908 0l306.732494-306.951606 307.165597 307.384709c31.74966 31.676964 83.318668 31.676964 114.995632 0 31.748636-31.750684 31.608364-83.173277-0.002047-115.143072z" fill="#515151" p-id="8679" data-spm-anchor-id="a313x.search_index.0.i6.12803a816xpiAY" class="selected"></path></svg>