<?xml version="1.0" standalone="no"?><!DOCTYPE svg PUBLIC "-//W3C//DTD SVG 1.1//EN" "http://www.w3.org/Graphics/SVG/1.1/DTD/svg11.dtd"><svg t="1775172838018" class="icon" viewBox="0 0 1365 1024" version="1.1" xmlns="http://www.w3.org/2000/svg" p-id="6886" xmlns:xlink="http://www.w3.org/1999/xlink" width="266.6015625" height="200"><path d="M0.000178 0h1364.764681v1023.573511H0.000178V0z" fill="#FEFEFE" p-id="6887"></path><path d="M984.336704 343.750104c-3.974877 4.9268-6.388805 10.612751-7.250312 17.059559a12.373298 12.373298 0 0 1-3.411912-4.26489 140.434286 140.434286 0 0 1-1.705956-15.353603c-0.136476-2.295364-0.844448-4.285361-2.132445-5.970845 1.987439-1.993409 3.266905-4.268302 3.838401-6.823824-14.995352 14.165404-32.771412 19.993803-53.31112 17.486048a68.224586 68.224586 0 0 1-11.515202-3.838401c-0.878567 0.286601-1.305056 0.855537-1.279467 1.705956-4.896093-7.373994-4.469604-14.482712 1.279467-21.324448 13.715885-14.747135 30.630437-21.855853 50.752186-21.324448 0.145006-62.552283 0-125.103713-0.426489-187.655144-2.413928-6.966271-7.105306-11.657649-14.074135-14.074136a35900.211712 35900.211712 0 0 0-493.87422-0.852978c-8.865853 2.325218-14.694251 7.869574-17.486047 16.63307a23919.615574 23919.615574 0 0 0 0 285.747605c2.070177 8.609106 7.330492 14.153463 15.780092 16.63307 114.867125 0.426489 229.735104 0.568936 344.603082 0.426489 5.977669 0.141594 11.948515 0 17.912536-0.426489-1.358794-0.809476-2.495813-1.804048-3.411912-2.985423 17.201153-1.273496 31.55933 4.413308 43.075386 17.059558a40.633309 40.633309 0 0 1 3.8384 6.823824 158.012455 158.012455 0 0 1-19.618492-6.397335 716.731762 716.731762 0 0 0-34.972095-0.426489h-13.647647a402.74291 402.74291 0 0 1-2.558934 16.206581h8.52978c1.380118 2.889889 2.233096 6.016906 2.558934 9.382757h-13.647647l-17.912537 95.533528c16.629658 0.709678 33.404322 1.136167 50.325698 1.279467a29.389354 29.389354 0 0 1 1.705956 8.10329h-54.590587a6820.721126 6820.721126 0 0 0-17.912537 93.827572c-0.771092 0.604761-1.055134 1.457739-0.852978 2.558934h92.121616c0.677264 2.816533 1.245348 5.659509 1.705956 8.529779-32.141914-0.562965-63.986139 0.005118-95.533528 1.705956a6579.05542 6579.05542 0 0 0-17.912536 92.121616c-0.771092 0.604761-1.055134 1.457739-0.852978 2.558934 36.68914 0.563818 73.083149-0.004265 109.181174-1.705956l11.088713-58.002499c1.100342 0.475962 1.810872 1.32894 2.132445 2.558934a1059.574297 1059.574297 0 0 1 2.985423 18.765514 14297.481223 14297.481223 0 0 0-37.531029 191.920033c-1.196728 2.908655-1.765664 6.039084-1.705956 9.382757-2.908655-0.238834-5.75163-0.810329-8.529779-1.705955-0.73612-1.93626-0.73612-3.923698 0-5.970846 2.776443-12.462007 5.335377-24.966664 7.676801-37.531029 0.811182-1.211229 1.095224-2.635702 0.852978-4.264889-36.254121-0.281483-72.364088 0-108.328196 0.852978a540.486904 540.486904 0 0 0-7.676801 39.236984c-1.196728 2.908655-1.765664 6.039084-1.705956 9.382757-2.908655-0.238834-5.75163-0.810329-8.52978-1.705955-0.73612-1.93626-0.73612-3.923698 0-5.970846a91426.369893 91426.369893 0 0 0 95.533528-485.34444c0.771092-0.604761 1.055134-1.457739 0.852978-2.558933h-329.249479c-15.088327-2.717588-24.613531-11.532262-28.574761-26.442316a25075.675322 25075.675322 0 0 1 0-292.571429c4.183857-13.565761 13.140125-22.237988 26.868805-26.015826 164.908781-0.568936 329.818416-0.568936 494.727197 0 15.780092 2.986276 25.87935 12.227439 30.280716 27.721782 0.281483 64.257386 0.571495 128.515625 0.852978 192.773011 12.282882 9.996048 15.8398 22.505823 10.662224 37.531029z" fill="#242C42" p-id="6888"></path><path d="M907.568691 343.750104c4.2393 4.959214 9.357168 8.65602 15.353602 11.088713a35.908665 35.908665 0 0 0-0.852977 6.823824c-1.620658 6.196885-3.326614 12.309324-5.117868 18.339025 0.793269 9.040713 5.621125 14.727517 14.500625 17.059558 9.758067 1.292262 19.140825 0.012795 28.148271-3.8384 0.349721 4.428661-0.221774 8.693551-1.705956 12.794669-7.73651 0.391517-15.413311 0.9596-23.030404 1.705956a122.005698 122.005698 0 0 1-10.662224-6.823824 21.578636 21.578636 0 0 0-5.544356 4.691379 15.618879 15.618879 0 0 1 1.705956 2.985422c-54.641766 3.406794-90.465133-20.76063-107.475219-72.503123v-11.088713-59.708455h-22.177426c0.142447 13.650206 0 27.297853-0.426489 40.94294L756.591598 265.702624a206.787439 206.787439 0 0 0-18.765514-0.426489v79.326947h21.324448a512.833359 512.833359 0 0 1 0.852978-41.795918 214.859169 214.859169 0 0 1 14.500624 17.912536c-1.675249 4.967743-2.101738 10.085611-1.279467 15.353603 0.802652 1.899582 1.798077 3.605538 2.985423 5.117867 0.783887 2.20836 2.205801 3.914316 4.26489 5.117868-0.009383 1.293968-0.577466 2.289393-1.705956 2.985423a78.118277 78.118277 0 0 0-14.500625 12.794669 205.727187 205.727187 0 0 0 11.941691 18.339025c2.322659 14.309558 8.293504 26.820185 17.912537 37.531029-114.867978 0.142447-229.735957 0-344.603082-0.426489-8.449599-2.479607-13.709914-8.023963-15.780092-16.63307a23919.615574 23919.615574 0 0 1 0-285.747605c2.791797-8.763495 8.620195-14.307852 17.486047-16.63307a35900.211712 35900.211712 0 0 1 493.87422 0.852978c6.96883 2.416486 11.660208 7.107865 14.074135 14.074136 0.426489 62.55143 0.571495 125.10286 0.426489 187.655144-20.121749-0.531405-37.036302 6.577313-50.752186 21.324448-5.749071 6.841736-6.17556 13.950454-1.279467 21.324448z" fill="#FEFEFE" p-id="6889"></path><path d="M602.202593 156.947938c18.623067-2.467665 34.119117 3.218286 46.487297 17.059559 8.745583 13.969219 9.598561 28.469844 2.558934 43.501874-11.850422 17.075765-28.19945 24.041183-49.046231 20.897959-25.331738-6.998684-36.562046-23.631753-33.692628-49.899208 5.080337-17.166181 16.311497-27.68681 33.692628-31.560184z" fill="#0D70D1" p-id="6890"></path><path d="M498.992264 158.653894h-17.912536v78.473969h21.324448c-7.236665 0.847007-14.629424 1.131049-22.177426 0.852978v-80.179925c6.413541-0.277218 12.668428 0.006824 18.765514 0.852978z" fill="#77B0E6" p-id="6891"></path><path d="M498.992264 158.653894a2477.324262 2477.324262 0 0 1 34.545606 40.942941c0.426489-13.645088 0.568936-27.292735 0.426489-40.942941h21.324448v78.473969c-5.977669 0.141594-11.948515 0-17.912536-0.426489a1194.571702 1194.571702 0 0 1-33.266139-39.663473c-0.241393-0.673-0.667882-1.241936-1.279467-1.705956-0.426489 13.92913-0.568936 27.860818-0.426489 41.795918h-21.324448v-78.473969h17.912536z" fill="#086FD1" p-id="6892"></path><path d="M533.964359 158.653894c7.236665-0.847007 14.629424-1.131049 22.177426-0.852978 0.282336 26.588175-0.001706 53.030491-0.852978 79.326947v-78.473969h-21.324448z" fill="#3688D9" p-id="6893"></path><path d="M730.149282 175.713453h-24.73636v61.41441h-21.324448v-61.41441h-24.73636v-17.912537h70.797168v17.912537z" fill="#0E70D1" p-id="6894"></path><path d="M607.320461 174.860475c21.085614 0.914392 29.188905 11.719064 24.309871 32.413161-4.838944 10.310797-12.942234 14.718134-24.309871 13.221158-13.071034-4.669201-18.61539-13.910364-16.63307-27.721783 2.516285-8.909354 8.060641-14.8802 16.63307-17.912536z" fill="#FBFDFE" p-id="6895"></path><path d="M659.352114 175.713453h24.73636v61.41441h21.324448v-61.41441h24.73636c-7.806454 0.84786-15.767297 1.131902-23.883382 0.852978v61.41441h-23.030404v-61.41441c-8.116085 0.278924-16.076928-0.005118-23.883382-0.852978z" fill="#7FB4E7" p-id="6896"></path><path d="M504.110132 197.037901l-1.705956 40.089962c-0.142447-13.9351 0-27.866789 0.426489-41.795918 0.611585 0.46402 1.038074 1.032956 1.279467 1.705956z" fill="#BBD7F2" p-id="6897"></path><path d="M1026.9856 205.56768a89.651392 89.651392 0 0 1 17.912537 9.382757 2709.341934 2709.341934 0 0 1-25.589338 58.855477c-4.043115-1.291409-7.74504-3.139812-11.088713-5.544356 6.320566-20.894547 12.581424-41.792506 18.765514-62.693878z" fill="#1371D1" p-id="6898"></path><path d="M585.996013 263.570179c17.277921-1.401443 31.636098 4.284508 43.075385 17.059559 12.848406 21.710847 9.862984 40.90285-8.956268 57.57601-17.738529 10.331269-35.651065 10.61531-53.73761 0.852978-16.672307-13.059945-21.647727-29.693015-14.927113-49.899209 7.060098-14.601276 18.5753-23.131055 34.545606-25.589338zM542.494139 265.276135v17.059558a451.645841 451.645841 0 0 0-39.236985 0.852978v16.206581a341.580128 341.580128 0 0 0 34.119117 0.852978v17.059558h-34.119117v27.295294h-23.030404v-79.326947h62.267389zM812.888141 324.98459c-6.281329-6.177266-13.389195-7.883222-21.324448-5.117868-5.95208-4.788618-11.638031-4.503723-17.059559 0.852978a214.859169 214.859169 0 0 0-14.500624-17.912536 512.833359 512.833359 0 0 0-0.852978 41.795918h-21.324448v-79.326947c6.261711-0.141594 12.516598 0 18.765514 0.426489l33.692628 40.516451c0.426489-13.645088 0.568936-27.292735 0.426489-40.94294h22.177426v59.708455zM829.094722 265.276135c14.219142-0.142447 28.438284 0 42.648896 0.426489 23.542191 2.221155 36.626872 15.015823 39.236985 38.384007-1.612128 23.50466-14.116785 36.868265-37.531029 40.089962-14.782107 0.426489-29.566774 0.568936-44.354852 0.426489v-79.326947zM648.263401 265.276135h22.177426c-0.142447 16.20914 0 32.41572 0.426489 48.619742 3.439207 13.871127 11.542497 17.424633 24.309871 10.662224 2.550404-3.094604 4.113913-6.648963 4.691379-10.662224 0.426489-16.204022 0.568936-32.410602 0.426489-48.619742h22.177426c0.142447 17.630201 0 35.258696-0.426489 52.884631-5.002716 19.764352-17.797384 29.147109-38.384007 28.148272-20.561033-0.742944-32.218682-11.262721-34.972095-31.560183-0.426489-16.488063-0.568936-32.979539-0.426489-49.47272z" fill="#A7AAB3" p-id="6899"></path><path d="M542.494139 265.276135c0.845301 5.811339 1.130196 11.782184 0.852977 17.912536h-40.089962a451.645841 451.645841 0 0 1 39.236985-0.852978v-17.059558z" fill="#CED0D5" p-id="6900"></path><path d="M585.996013 282.335693c19.574137-1.323822 28.814447 7.774894 27.721782 27.295294-3.910051 14.116785-13.150361 19.945183-27.721782 17.486048-7.787688-2.921449-12.479067-8.465806-14.074136-16.63307-2.504343-13.188745 2.187035-22.571502 14.074136-28.148272zM851.272148 283.188671c6.832353-0.141594 13.656177 0 20.47147 0.426489 10.116318 3.017836 15.524198 9.841659 16.206581 20.471471 0.153536 11.498142-5.245814 18.890049-16.206581 22.177426-6.815294 0.426489-13.639117 0.568083-20.47147 0.426489v-43.501875z" fill="#FEFEFE" p-id="6901"></path><path d="M1001.396263 283.188671c11.310487-0.496433 15.4389 4.621434 12.36818 15.353603-6.013494 5.923932-11.694327 5.639037-17.059559-0.852978-2.32863-6.13547-0.76768-10.969296 4.691379-14.500625z" fill="#1371D1" p-id="6902"></path><path d="M503.257154 299.395252h34.972095c0.277218 6.130352-0.007677 12.101198-0.852978 17.912536v-17.059558a341.580128 341.580128 0 0 1-34.119117-0.852978z" fill="#DCDDE0" p-id="6903"></path><path d="M791.563693 319.866722l1.705956 2.558934a267.005121 267.005121 0 0 0-17.059559 18.765514c-1.187345-1.51233-2.182771-3.218286-2.985423-5.117867-0.822271-5.267992-0.395782-10.385859 1.279467-15.353603 5.421528-5.356701 11.107479-5.641596 17.059559-0.852978z" fill="#FECB9D" p-id="6904"></path><path d="M812.888141 324.98459v11.088713c-1.340881-2.315835-2.193859-4.874769-2.558934-7.676802a52.172395 52.172395 0 0 0-11.941691 4.26489c-0.369339-4.151444-2.075295-7.563355-5.117867-10.235735l-1.705956-2.558934c7.935254-2.765354 15.043119-1.059399 21.324448 5.117868z" fill="#989AA1" p-id="6905"></path><path d="M793.269649 322.425656c3.042572 2.67238 4.748528 6.084292 5.117867 10.235735-5.966581 4.54296-11.937426 9.092745-17.912536 13.647647-2.059089-1.203552-3.481003-2.909508-4.26489-5.117868a267.005121 267.005121 0 0 1 17.059559-18.765514z" fill="#E5B78F" p-id="6906"></path><path d="M812.888141 336.073303c17.010086 51.742494 52.833453 75.909918 107.475219 72.503123a389.180561 389.180561 0 0 0 13.221158 18.765515c4.068705-3.633686 7.617093-7.614534 10.662224-11.941691h1.705955c5.936726 5.073513 11.907572 10.19138 17.912537 15.353603 6.866472-8.850499 13.690296-17.66432 20.47147-26.442316 6.090262 0.04862 12.342591 0.191067 18.765515 0.426489 3.446031 0.766827 6.56793 2.188741 9.382757 4.264889 18.108721 14.258379 32.609346 31.460385 43.501874 51.605165-2.115385 1.381824-3.394852 3.371822-3.838401 5.970845-0.332661 13.355928 3.215727 25.582514 10.662224 36.678051-9.903074 23.535367-23.550721 44.575773-40.94294 63.120367a28.594379 28.594379 0 0 1-8.529779-2.132445c13.187039-22.611592 17.588405-46.921463 13.221157-72.929613-2.268921-13.354222-7.958284-25.011019-17.059558-34.972095-0.153536 3.854607-0.580025 7.551414-1.279467 11.088713 0.136476-2.010469 0-4.000466-0.426489-5.970845-17.656643 47.077558-51.639284 72.097959-101.930862 75.062057h-0.852978a1025.591657 1025.591657 0 0 0-5.544356-65.6793c-0.238834-0.781328-0.665323-1.349411-1.279467-1.705956 0.938276-4.112207 0.938276-8.092202 0-11.941691 0.272953-4.148032-0.00853-8.12888-0.852978-11.941691h-4.26489a274.006364 274.006364 0 0 1-37.531029-6.823823 40.633309 40.633309 0 0 0-3.8384-6.823824c-11.516055-12.646251-25.874232-18.333055-43.075386-17.059558-12.315295-10.037844-23.119114-21.410599-32.413161-34.119117a205.727187 205.727187 0 0 1-11.941691-18.339025 78.118277 78.118277 0 0 1 14.500625-12.794669c1.12849-0.69603 1.696573-1.691455 1.705956-2.985423 5.97511-4.554902 11.945956-9.104686 17.912536-13.647647a52.172395 52.172395 0 0 1 11.941691-4.26489c0.365075 2.802032 1.218052 5.360966 2.558934 7.676802z" fill="#D9DADF" p-id="6907"></path><path d="M969.836079 335.220325c-9.357168 9.946576-20.735893 16.627952-34.119117 20.044981a42.623307 42.623307 0 0 1-12.794669-0.426489c-5.996435-2.432693-11.114302-6.129499-15.353602-11.088713-0.025589-0.850419 0.4009-1.419355 1.279467-1.705956a68.224586 68.224586 0 0 0 11.515202 3.838401c20.539708 2.507755 38.315768-3.320643 53.31112-17.486048-0.571495 2.555522-1.850962 4.830414-3.838401 6.823824z" fill="#161923" p-id="6908"></path><path d="M969.836079 335.220325c1.287997 1.685484 1.995968 3.675482 2.132445 5.970845 0.290012 5.151134 0.852978 10.269001 1.705956 15.353603a12.373298 12.373298 0 0 0 3.411912 4.26489c0.861508-6.446807 3.275435-12.132758 7.250312-17.059559 0.221774 9.131129-0.059708 18.229844-0.852978 27.295294-10.508688-1.978056-16.761016-8.233796-18.765514-18.765515-8.615077 4.244418-17.707822 7.229841-27.295294 8.956269-5.109338 0.425636-10.227205 0.568083-15.353602 0.426489 0.068238-2.308158 0.349721-4.58305 0.852977-6.823824a42.623307 42.623307 0 0 0 12.794669 0.426489c13.383224-3.41703 24.761949-10.098406 34.119117-20.044981z" fill="#E2B48C" p-id="6909"></path><path d="M983.483726 371.045398a23.667579 23.667579 0 0 1-2.132445 8.529779c-2.68688 2.39175-5.382291 4.665789-8.10329 6.823823-4.546372 2.274892-9.101274 4.548931-13.647647 6.823824-9.007447 3.851195-18.390204 5.130662-28.148271 3.8384-8.8795-2.332042-13.707355-8.018845-14.500625-17.059558 1.791254-6.029701 3.497209-12.142141 5.117868-18.339025 5.126397 0.141594 10.244265-0.000853 15.353602-0.426489 9.587472-1.726427 18.680217-4.71185 27.295294-8.956269 2.004498 10.531718 8.256826 16.787459 18.765514 18.765515z" fill="#FECA9D" p-id="6910"></path><path d="M776.21009 380.428155c9.294047 12.708518 20.097866 24.081273 32.413161 34.119117 0.916098 1.181374 2.053118 2.175947 3.411912 2.985423-5.964022 0.426489-11.934867 0.568083-17.912536 0.426489-9.619032-10.710844-15.589878-23.221471-17.912537-37.531029z" fill="#CFCFCF" p-id="6911"></path><path d="M973.247991 386.399v11.941691c-4.034586 2.891595-8.299475 5.450529-12.794669 7.676802h-2.558934c1.484182-4.101118 2.055677-8.366007 1.705956-12.794669 4.546372-2.274892 9.101274-4.548931 13.647647-6.823824z" fill="#23293B" p-id="6912"></path><path d="M984.336704 404.311537c-6.781175 8.777996-13.604998 17.591817-20.47147 26.442316a8085.944137 8085.944137 0 0 0-17.912537-15.353603 126.170789 126.170789 0 0 0 14.500625-9.382757c4.495194-2.226272 8.760083-4.785206 12.794669-7.676802 1.808313-1.427885 3.804282-2.138416 5.970846-2.132444 2.277451 1.989998 4.546372 3.980848 6.823823 5.970845-0.750621 0.603908-1.322116 1.315292-1.705956 2.132445z" fill="#1070D0" p-id="6913"></path><path d="M934.863984 407.723449a61.405028 61.405028 0 0 0 9.382758 7.676801c-3.045131 4.327157-6.593519 8.308005-10.662224 11.941691a389.180561 389.180561 0 0 1-13.221158-18.765515 15.618879 15.618879 0 0 0-1.705956-2.985422 21.578636 21.578636 0 0 1 5.544356-4.691379c3.46309 2.474489 7.011479 4.749381 10.662224 6.823824z" fill="#1667BE" p-id="6914"></path><path d="M957.894388 406.017493h2.558934a126.170789 126.170789 0 0 1-14.500625 9.382757h-1.705955a61.405028 61.405028 0 0 1-9.382758-7.676801c7.617093-0.746356 15.293894-1.314439 23.030404-1.705956z" fill="#E2B793" p-id="6915"></path><path d="M449.519545 430.753853h329.249479c0.202156 1.101195-0.081886 1.954172-0.852978 2.558933a31580.072996 31580.072996 0 0 0-328.396501-2.558933z" fill="#4F5567" p-id="6916"></path><path d="M790.710715 431.60683a80.717301 80.717301 0 0 1 2.558934 16.206581h-8.52978a402.74291 402.74291 0 0 0 2.558934-16.206581h3.411912z" fill="#F5F5F6" p-id="6917"></path><path d="M790.710715 431.60683h10.235735a96.190321 96.190321 0 0 0 2.558934 15.780092c29.852521 0.426489 59.708455 0.568936 89.562682 0.426489h4.26489v-2.558934c0.844448 3.812811 1.125931 7.793659 0.852978 11.941691-2.866006-0.348868-5.42494 0.220068-7.676802 1.705956-28.131212-1.699985-56.566937-2.268921-85.297792-1.705956a2351.802589 2351.802589 0 0 1 17.912536 95.533528c8.296916 0.545053 16.257759-0.023883 23.883382-1.705956 1.453474 3.51171 2.590494 7.208516 3.411912 11.088713h-24.73636a6468.455743 6468.455743 0 0 1 18.765514 95.533528c2.861741 0.348868 5.420675-0.220068 7.676802-1.705956 2.789238 1.997674 5.919667 2.282569 9.382757 0.852978 3.812811 0.841036 7.796218 1.125078 11.941691 0.852978a3331.902374 3331.902374 0 0 0-7.676802 10.235735h-6.823823c-3.215727-0.218362-6.342744 0.065679-9.382757 0.852978-0.604761-0.771092-1.457739-1.055134-2.558934-0.852978 0.257599 2.450606 0.826536 4.724645 1.705956 6.823823 1.222317 7.676801 2.501784 15.353603 3.838401 23.030404 0.326691-0.474256 0.75318-0.758297 1.279466-0.852978a12.095227 12.095227 0 0 1-0.852977 2.985423c4.341658 21.129969 8.316535 42.31197 11.941691 63.546856h75.915035c-1.134461 1.421914-2.277451 2.842975-3.411912 4.264889-2.064207 0.498992-3.48868 1.778459-4.264889 3.838401 14.364148 0.1433 28.58329 0.569789 42.648896 1.279467h-108.328197c6.19262 31.740162 12.453478 63.442792 18.765515 95.107039 35.825073 0.426489 71.650146 0.571495 107.475218 0.426489-4.964332-29.086547-10.363682-58.087797-16.20658-87.003749l8.529779 0.852978v-3.411912c9.340108 47.830737 19.004348 95.601766 29.001249 143.300292v2.558934c-3.045131 0.37531-6.030554 0.938276-8.956268 1.705955-0.827389-2.627172-1.54389-5.186106-2.132445-7.676801-2.345689-13.698825-4.904623-27.346472-7.676801-40.94294h-108.328196c2.738059 14.244731 5.578476 28.455344 8.529779 42.648896 0.460608 1.381824 0.742091 2.797768 0.852978 4.26489-3.045131 0.37531-6.030554 0.938276-8.956269 1.705955-0.827389-2.627172-1.54389-5.186106-2.132444-7.676801a19406.663757 19406.663757 0 0 0-38.384007-193.625989 1059.574297 1059.574297 0 0 0-2.985423-18.765514c-0.321573-1.229994-1.032103-2.082972-2.132445-2.558934 0.102357-1.449209 0.387252-2.870271 0.852978-4.26489a308.33702 308.33702 0 0 1-5.970845-31.560183c-32.190534-0.278924-64.319653 0.005971-96.386506 0.852978 31.547389-1.700838 63.391613-2.268921 95.533528-1.705956a113.153493 113.153493 0 0 0-1.705956-8.529779v-0.852978a4724.444282 4724.444282 0 0 0-18.765514-95.533528 29.389354 29.389354 0 0 0-1.705956-8.10329 1472.813101 1472.813101 0 0 1-50.325698-1.279467h50.325698a14207.925364 14207.925364 0 0 0-18.765514-95.533528c-0.325838-3.365851-1.178815-6.492868-2.558934-9.382757a80.717301 80.717301 0 0 0-2.558934-16.206581z" fill="#A7AAB3" p-id="6918"></path><path d="M800.94645 431.60683a716.731762 716.731762 0 0 1 34.972095 0.426489 158.012455 158.012455 0 0 0 19.618492 6.397335 274.006364 274.006364 0 0 0 37.531029 6.823823v2.558934c-29.854227 0.142447-59.710161 0-89.562682-0.426489a96.190321 96.190321 0 0 1-2.558934-15.780092z" fill="#FBFBFC" p-id="6919"></path><path d="M429.048074 467.431903c-4.827855 9.24031-11.651678 16.774664-20.47147 22.603915-12.884232 6.329949-26.531878 9.173778-40.94294 8.52978 2.843828 0.888803 5.402762 2.16827 7.676801 3.8384a112.908688 112.908688 0 0 0 8.956268 16.206581c0.568936 2.558934 0.568936 5.117868 0 7.676801-3.423853-4.980538-8.115232-8.108408-14.074135-9.382757-7.292961-3.596155-12.126787-9.282959-14.500625-17.059558-10.141055-1.210376-14.263497-6.896327-12.36818-17.059559 1.396325-3.52877 3.812811-6.087703 7.250312-7.676801-5.159663-10.072816-2.884771-17.892065 6.823824-23.456893 4.948125-2.008763 9.639504-1.582274 14.074135 1.279467 4.531872-13.566614 13.204098-17.12012 26.015827-10.662224a18.555682 18.555682 0 0 1 5.117868 6.397334c5.660362-9.633533 13.621204-12.050019 23.883382-7.250312 6.690759 5.306376 8.539162 11.987752 5.544356 20.044981a14.79149 14.79149 0 0 0-2.985423 5.970845z" fill="#242C41" p-id="6920"></path><path d="M893.068066 445.254477h4.26489v2.558934h-4.26489v-2.558934z" fill="#393F54" p-id="6921"></path><path d="M795.828583 457.196168a14207.925364 14207.925364 0 0 1 18.765514 95.533528h-50.325698l17.912537-95.533528h13.647647z" fill="#FDFDFD" p-id="6922"></path><path d="M890.509132 458.902124c-4.836385 25.025519-9.66424 50.045921-14.500624 75.062058a1017.417569 1017.417569 0 0 0-31.133695-2.558934l-3.8384 0.852978a179.628621 179.628621 0 0 1 5.970845 18.765514c-7.625623 1.682072-15.586466 2.251009-23.883382 1.705956a2351.802589 2351.802589 0 0 0-17.912536-95.533528c28.730855-0.562965 57.166581 0.005971 85.297792 1.705956z" fill="#FEFEFE" p-id="6923"></path><path d="M898.185934 457.196168c0.938276 3.849489 0.938276 7.829484 0 11.941691a3282.729903 3282.729903 0 0 0-12.794669 64.826323h-9.382757c4.836385-25.016137 9.66424-50.036538 14.500624-75.062058 2.251862-1.485888 4.810796-2.054824 7.676802-1.705956z" fill="#272E44" p-id="6924"></path><path d="M1055.98685 460.60808c8.299475 15.230774 13.698825 31.437354 16.206581 48.619742 0.315602 2.906096-0.537376 3.332585-2.558934 1.279467a79.861764 79.861764 0 0 1-6.823824-7.250313c-7.446497-11.095537-10.994885-23.322122-10.662224-36.678051 0.443549-2.599024 1.723015-4.589021 3.838401-5.970845z" fill="#282F45" p-id="6925"></path><path d="M1008.220086 467.431903c-2.669821 36.231943-7.506206 72.057016-14.500625 107.475219 0.460608-2.335454-0.39237-3.899815-2.558933-4.691379-18.501091-7.26396-36.985123-14.514272-55.443566-21.750937a705.353889 705.353889 0 0 1-29.854227-11.941691c50.291579-2.964098 84.274219-27.9845 101.930862-75.062057 0.426489 1.970379 0.562965 3.960377 0.426489 5.970845z" fill="#C4C5CA" p-id="6926"></path><path d="M429.048074 467.431903a35.012185 35.012185 0 0 1-1.279466 11.088713 57.533361 57.533361 0 0 0-3.838401 8.52978c-4.879034 6.007524-11.133921 10.130819-18.765515 12.36818-10.007137 1.61554-19.957978 2.610965-29.854227 2.985422-2.274039-1.670131-4.832973-2.949598-7.676801-3.8384 14.411062 0.643998 28.058709-2.19983 40.94294-8.52978 8.819792-5.829251 15.643615-13.363605 20.47147-22.603915z" fill="#151822" p-id="6927"></path><path d="M898.185934 469.137859c0.614144 0.356545 1.040633 0.924628 1.279467 1.705956 2.550404 21.833676 4.401366 43.72706 5.544356 65.6793-6.721466-0.355692-13.263807-1.20867-19.618492-2.558933 4.051645-21.673316 8.316535-43.281806 12.794669-64.826323z" fill="#FAFAFB" p-id="6928"></path><path d="M423.930207 487.050396a4.208593 4.208593 0 0 0 0.426489 2.558933 26.823597 26.823597 0 0 1 3.8384 4.26489c-10.978679 9.608796-23.773348 15.2956-38.384006 17.059559 4.249536 9.609649 3.112516 18.42347-3.411912 26.442315a73.520726 73.520726 0 0 1-16.20658-20.47147c5.958904 1.274349 10.650282 4.402219 14.074135 9.382757 0.568936-2.558934 0.568936-5.117868 0-7.676801a112.908688 112.908688 0 0 1-8.956268-16.206581c9.89625-0.374457 19.84709-1.369883 29.854227-2.985422 7.631594-2.237361 13.886481-6.360656 18.765515-12.36818z" fill="#E1B38B" p-id="6929"></path><path d="M428.195096 493.874219c4.524195 3.403382 9.357168 6.388805 14.500625 8.956268 5.872753 8.604841 5.446264 16.993026-1.279467 25.162849-4.041409 3.943317-8.732788 6.92874-14.074135 8.956268-10.738139 4.111354-21.826852 6.101351-33.26614 5.970846-3.411912-0.716501-5.970845-2.564052-7.676801-5.544357 6.524428-8.018845 7.661448-16.832666 3.411912-26.442315 14.610659-1.763958 27.405328-7.450762 38.384006-17.059559z" fill="#FECB9D" p-id="6930"></path><path d="M1062.810673 503.256976a79.861764 79.861764 0 0 0 6.823824 7.250313c2.021558 2.053118 2.874536 1.626629 2.558934-1.279467 0.699442 2.106002 1.125931 4.380042 1.279466 6.823823 1.54389 20.694097 0.264423 41.165568-3.8384 61.414411-1.629188-0.242246-3.053661 0.041796-4.26489 0.852978-3.062191-0.708825-6.18409-0.708825-9.382757 0v-0.852978c0.145006-1.127637-0.136476-2.123062-0.852978-2.985423-7.412378-1.569479-14.799167-3.132988-22.177426-4.691379a236.701374 236.701374 0 0 0-11.088713-3.411911c17.39222-18.544593 31.039867-39.585 40.94294-63.120367z" fill="#C5C6CA" p-id="6931"></path><path d="M302.807341 529.699292a143.754076 143.754076 0 0 0-26.442315-0.426489c-2.522256 0.237981-4.796295 0.949364-6.823824 2.132445-4.097706-2.313276-4.381748-5.013804-0.852978-8.10329 11.171452-5.714099 21.833676-5.003569 31.986673 2.132444a16.357558 16.357558 0 0 1 2.132444 4.26489z" fill="#FECB9F" p-id="6932"></path><path d="M530.552448 532.258226c-0.065679-1.066222-0.634616-1.776753-1.705956-2.132445a120.667375 120.667375 0 0 0-30.707206-0.426489c4.107942-6.820411 10.221234-10.232323 18.339026-10.235735a49.356715 49.356715 0 0 1 15.780091 3.838401c3.607244 3.644775 3.038307 6.630197-1.705955 8.956268z" fill="#FECB9E" p-id="6933"></path><path d="M302.807341 529.699292c1.507212 1.955025 2.36019 4.229065 2.558934 6.823823-4.821031 0.453784-9.654857 0.737826-14.500625 0.852978h-7.676801c0.259305-0.554436 0.543347-1.123372 0.852978-1.705956a44.475122 44.475122 0 0 0-8.529779-1.279466c-2.280863-0.571495-4.27086-1.56692-5.970846-2.985423 2.027529-1.18308 4.301568-1.894464 6.823824-2.132445a143.754076 143.754076 0 0 1 26.442315 0.426489z" fill="#E6B891" p-id="6934"></path><path d="M530.552448 532.258226c-6.401599 1.559244-12.08755 3.2652-17.059559 5.117867-6.130352 0.277218-12.101198-0.007677-17.912536-0.852978a43.820888 43.820888 0 0 1 2.558933-6.823823 120.667375 120.667375 0 0 1 30.707206 0.426489c1.07134 0.355692 1.640277 1.066222 1.705956 2.132445z" fill="#E4B790" p-id="6935"></path><path d="M876.008508 533.964182h9.382757c6.354686 1.350264 12.897026 2.203242 19.618492 2.558933h0.852978a705.353889 705.353889 0 0 0 29.854227 11.941691c-0.255893 13.663853-0.827389 27.3115-1.705955 40.942941l-46.060808-11.088713a382.758491 382.758491 0 0 0 0.852977 58.002499 33.083602 33.083602 0 0 1-13.647646 0c-1.995968-5.710687-3.991937-11.397491-5.970846-17.059559a430.124355 430.124355 0 0 0-6.823823-20.47147 353.702651 353.702651 0 0 0-11.941691-36.678051c-0.821418-3.880197-1.958437-7.577003-3.411912-11.088713a179.628621 179.628621 0 0 0-5.970845-18.765514l3.8384-0.852978c10.397801 0.694324 20.778542 1.547302 31.133695 2.558934z" fill="#0B6FD1" p-id="6936"></path><path d="M305.366275 536.523115h17.912537a2236.347762 2236.347762 0 0 1 7.250312 61.414411c0.184243-17.342747 4.449133-33.549328 12.794669-48.619742 4.666642-6.67114 10.779935-8.518691 18.339025-5.544356l6.823824 3.411911 11.515202 11.515202c3.222551-0.966424 5.923932-2.67238 8.10329-5.117867a300.086164 300.086164 0 0 1 30.707205-2.132445c1.769929 3.479297 4.186416 6.46472 7.250313 8.956268 2.820798-6.237828 6.94324-11.498142 12.36818-15.780091 5.521326-2.902684 10.924088-2.617789 16.20658 0.852978 13.61694 13.741474 20.582357 30.374544 20.897959 49.899208 2.39175-19.637258 4.80909-39.25575 7.250313-58.855477h12.794669c5.811339 0.845301 11.782184 1.130196 17.912536 0.852978a168.028122 168.028122 0 0 0 17.059559 1.279467 776.934944 776.934944 0 0 0-8.103291 22.603915 5962.616803 5962.616803 0 0 1-17.912536 59.708455c-4.407337 9.960223-9.666799 19.34298-15.780092 28.148272-15.140358-5.658656-26.229071-1.109724-33.266139 13.647646-0.403459-1.199287-1.256436-1.768223-2.558934-1.705955-2.616083-3.05622-4.748528-6.468132-6.397334-10.235736a2404.268408 2404.268408 0 0 0-14.500625-61.41441 488.338392 488.338392 0 0 0-0.852978 52.884631c0.123682 9.166954 2.398574 17.696733 6.823824 25.589338 3.757368 4.07894 8.164705 7.20681 13.221157 9.382757a3166.099672 3166.099672 0 0 0-2.558933 39.236985h-89.562683c0.228598-1.363912-0.056297-2.500931-0.852977-3.411912a571.106252 571.106252 0 0 0-3.411912-36.678051c9.082509-2.686027 14.910907-8.656873 17.486047-17.912536a386.469798 386.469798 0 0 0 1.279467-63.973345 677.319064 677.319064 0 0 0-12.36818 52.884632c-1.551567 4.81506-3.968053 9.07995-7.250312 12.794669a15.274276 15.274276 0 0 1-4.26489 2.558933c-6.309478-15.66494-17.682232-21.351743-34.119117-17.059558-6.279623-8.573281-11.255044-17.956038-14.927113-28.148272a1138.235069 1138.235069 0 0 0-24.309871-78.473969l14.500624-1.705956a207.226722 207.226722 0 0 0 14.500625-0.852978z" fill="#086FD1" p-id="6937"></path><path d="M283.188849 537.376093h7.676801l-14.500624 1.705956c-0.463167-0.051179-0.747209-0.33522-0.852978-0.852978a18.020865 18.020865 0 0 1 7.676801-0.852978z" fill="#508DD2" p-id="6938"></path><path d="M935.716962 548.464806c18.458442 7.236665 36.942474 14.486977 55.443566 21.750937 2.166564 0.791564 3.019542 2.355925 2.558933 4.691379-7.659742 42.5926-15.05506 85.241496-22.177426 127.946689a491.096923 491.096923 0 0 0-5.117867 27.295294 83.361533 83.361533 0 0 1-2.132445 9.382757c-2.985423 1.952466-6.115852 2.805444-9.382757 2.558934-5.962316-24.668122-10.935177-49.404481-14.927114-74.20908 0-3.440913-0.290012-6.852825-0.852978-10.235735a894.639074 894.639074 0 0 1-5.117867-68.238234 897.887214 897.887214 0 0 0 1.705955-40.942941z" fill="#0764BD" p-id="6939"></path><path d="M816.300053 562.112453a4724.444282 4724.444282 0 0 1 18.765514 95.533528c-30.720853 0.562965-61.143164-0.005118-91.268638-1.705956a6820.721126 6820.721126 0 0 1 17.912537-93.827572h54.590587z" fill="#FEFEFE" p-id="6940"></path><path d="M850.41917 562.112453a353.702651 353.702651 0 0 1 11.941691 36.678051 2512.196558 2512.196558 0 0 1-10.235735 57.149521c-2.256127 1.485888-4.81506 2.054824-7.676802 1.705956a6468.455743 6468.455743 0 0 0-18.765514-95.533528h24.73636z" fill="#FDFDFD" p-id="6941"></path><path d="M1032.956446 569.789254c7.378259 1.558391 14.765048 3.121899 22.177426 4.691379 0.716501 0.862361 0.997984 1.857786 0.852978 2.985423a37.331432 37.331432 0 0 0-15.353603 2.985423c-3.403382 0.425636-6.815294 0.568083-10.235735 0.426489v-5.117868c0.179125-2.338012 1.032103-4.32801 2.558934-5.970846z" fill="#E6B78F" p-id="6942"></path><path d="M1030.397512 575.7601v5.117868c3.420441 0.141594 6.832353-0.000853 10.235735-0.426489a37.331432 37.331432 0 0 1 15.353603-2.985423v0.852978a18.037071 18.037071 0 0 0-1.705956 5.970845c-3.650746 7.510471-9.621591 10.495893-17.912536 8.956268-2.149504-1.16005-3.85546-2.723559-5.117868-4.691378-0.255893-1.623217-0.818859-3.045131-1.705956-4.26489-0.264423-3.021248 0.01706-5.864223 0.852978-8.529779z" fill="#FECB9E" p-id="6943"></path><path d="M1065.369607 578.319034a639.153419 639.153419 0 0 1 3.411912 20.47147v4.26489h-4.26489c0.204715-1.101195-0.085298-1.954172-0.852978-2.558934a301.421075 301.421075 0 0 1-2.558934-17.059559l-6.823823 0.852978c0.230304-2.102591 0.793269-4.093441 1.705956-5.970845 3.198667-0.708825 6.320566-0.708825 9.382757 0z" fill="#939396" p-id="6944"></path><path d="M934.011007 589.407747c0.835918 22.813748 2.541874 45.56011 5.117867 68.238234h-45.20783c-2.68688-8.181764-7.514736-10.030167-14.500625-5.544357a54.340665 54.340665 0 0 1-5.970845 5.544357c-4.145473 0.2721-8.12888-0.011942-11.941691-0.852978a372.487783 372.487783 0 0 1 7.676801-37.531029c1.978909 5.662067 3.974877 11.348871 5.970846 17.059559a33.083602 33.083602 0 0 0 13.647646 0 382.758491 382.758491 0 0 1-0.852977-58.002499l46.060808 11.088713z" fill="#FDFDFE" p-id="6945"></path><path d="M1063.663651 600.49646c0.145006 1.127637-0.136476 2.123062-0.852978 2.985423-9.365698 1.987439-18.748455 3.835842-28.148271 5.544356-1.057693-6.835765-2.192153-13.659589-3.411912-20.47147 1.262407 1.96782 2.968363 3.531329 5.117868 4.691378 8.290945 1.539625 14.261791-1.445798 17.912536-8.956268l6.823823-0.852978c0.690912 5.715805 1.54389 11.401756 2.558934 17.059559z" fill="#FDFDFD" p-id="6946"></path><path d="M1029.544534 584.289879c0.887097 1.219758 1.450062 2.641673 1.705956 4.26489 1.219758 6.811882 2.354219 13.635705 3.411912 20.47147-1.211229 0.811182-2.635702 1.095224-4.26489 0.852978 0.204715-1.101195-0.085298-1.954172-0.852978-2.558934a190.367613 190.367613 0 0 0-4.264889-22.177426c1.322116-0.812035 2.738059-1.096077 4.264889-0.852978z" fill="#929396" p-id="6947"></path><path d="M452.931456 661.057893c-0.247364 5.558004-0.8163 10.960766-1.705956 16.20658-5.056453-2.175947-9.46379-5.303817-13.221157-9.382757-4.425249-7.892605-6.700142-16.422384-6.823824-25.589338a488.338392 488.338392 0 0 1 0.852978-52.884631 2404.268408 2404.268408 0 0 1 14.500625 61.41441c1.648806 3.767603 3.781251 7.179515 6.397334 10.235736zM354.838995 676.411495c-0.227745-5.406174-0.511787-10.808083-0.852978-16.20658 3.282259-3.714719 5.698746-7.979608 7.250312-12.794669a677.319064 677.319064 0 0 1 12.36818-52.884632 386.469798 386.469798 0 0 1-1.279467 63.973345c-2.57514 9.255663-8.403539 15.226509-17.486047 17.912536z" fill="#0564BD" p-id="6948"></path><path d="M1087.547033 598.790504c0.213244 4.217123 1.066222 8.197971 2.558934 11.941691a155.903893 155.903893 0 0 1 2.985423 23.883382l-1.279467 1.279467a239.550321 239.550321 0 0 1-8.10329 1.279467c-1.731545 0.124535-3.156018-0.443549-4.26489-1.705956a1676.545173 1676.545173 0 0 0-4.691379-23.030404c-0.682382-3.963788-1.245348-7.944636-1.705956-11.941691 0.562965-2.686027 2.268921-3.965494 5.117868-3.838401 2.558934-0.568936 5.117868-0.568936 7.676801 0 0.486197 0.848713 1.049163 1.559244 1.705956 2.132445z" fill="#1171D1" p-id="6949"></path><path d="M1105.45957 604.761349a73.108738 73.108738 0 0 1-15.353603 2.558934v3.411912c-1.492711-3.74372-2.345689-7.724568-2.558934-11.941691a102.924581 102.924581 0 0 1 17.059559-2.558934c0.469138 2.820798 0.750621 5.663773 0.852978 8.529779z" fill="#C5C7CB" p-id="6950"></path><path d="M1068.781519 598.790504c0.793269 0.91098 1.083282 2.048 0.852978 3.411912 1.450062-0.02303 2.584523-0.591967 3.411911-1.705956 0.460608 3.997055 1.023574 7.977903 1.705956 11.941691a26.350194 26.350194 0 0 1-1.705956-1.705956c-15.038001 3.06475-30.110121 5.907725-45.20783 8.529779a37.716125 37.716125 0 0 1-1.705955-8.529779h3.411911v-3.411912c0.76768 0.604761 1.057693 1.457739 0.852978 2.558934 1.629188 0.242246 3.053661-0.041796 4.26489-0.852978 9.399817-1.708515 18.782574-3.556918 28.148271-5.544356 0.716501-0.862361 0.997984-1.857786 0.852978-2.985423 0.76768 0.604761 1.057693 1.457739 0.852978 2.558934h4.26489v-4.26489z" fill="#C4C6CB" p-id="6951"></path><path d="M862.360861 598.790504c2.422457 6.6882 4.691379 13.512023 6.823823 20.47147a372.487783 372.487783 0 0 0-7.676801 37.531029c-3.46309 1.429591-6.593519 1.144696-9.382757-0.852978 3.633686-19.019702 7.045598-38.069258 10.235735-57.149521z" fill="#272F45" p-id="6952"></path><path d="M1105.45957 604.761349a636.962972 636.962972 0 0 1 7.676801 34.972095c-0.554436-0.259305-1.125931-0.543347-1.705956-0.852978a459.05566 459.05566 0 0 1-23.883382 11.515202c-23.678667 9.247987-46.999084 17.920213-69.94419 26.015827-2.362749 0.986895-4.921683 1.555832-7.676801 1.705956 0.605614-0.771092 1.458592-1.055134 2.558934-0.852978a2875.91914 2875.91914 0 0 0-10.235735-52.031653c3.633686-1.698279 7.32708-2.267215 11.088713-1.705956 1.791254 8.247444 3.642216 16.493181 5.544356 24.73636 0.682382 1.112283 1.680367 1.681219 2.985423 1.705956l8.529779-2.132445c1.305056-1.405708 1.876551-3.111663 1.705956-5.117868a569.929996 569.929996 0 0 0-4.26489-23.456893c15.097709-2.622054 30.169829-5.46503 45.20783-8.529779 0.580025 0.633763 1.15152 1.201846 1.705956 1.705956a1676.545173 1676.545173 0 0 1 4.691379 23.030404c1.108871 1.262407 2.533344 1.830491 4.26489 1.705956 2.71247-0.380428 5.40788-0.806917 8.10329-1.279467l1.279467-1.279467a155.903893 155.903893 0 0 0-2.985423-23.883382v-3.411912a73.108738 73.108738 0 0 0 15.353603-2.558934z" fill="#D9DADF" p-id="6953"></path><path d="M1026.132623 610.732195c0.247364 2.933391 0.810329 5.776367 1.705955 8.529779a569.929996 569.929996 0 0 1 4.26489 23.456893c0.170596 2.006204-0.4009 3.71216-1.705956 5.117868l-8.529779 2.132445c-1.305056-0.024736-2.30304-0.593673-2.985423-1.705956a1962.804565 1962.804565 0 0 1-5.544356-24.73636c-0.477668-3.713013-1.049163-7.408966-1.705956-11.088713a12.53707 12.53707 0 0 1 2.558934-2.985423c2.260392-0.48108 4.537843-0.907569 6.823823-1.279467 2.217743-0.028148 3.923698 0.82483 5.117868 2.558934z" fill="#1170D1" p-id="6954"></path><path d="M1011.631998 612.438151c0.656793 3.679747 1.228288 7.3757 1.705956 11.088713-3.761633-0.561259-7.455027 0.007677-11.088713 1.705956 3.573978 17.323129 6.985889 34.667582 10.235735 52.031653-1.100342-0.202156-1.953319 0.081886-2.558934 0.852978-2.31157 0.063973-4.580491 0.348015-6.823823 0.852978a4523.486094 4523.486094 0 0 1-11.941691-61.414411 299.985513 299.985513 0 0 1 17.059558-2.985422c1.390354-0.409429 2.533344-1.11996 3.411912-2.132445z" fill="#C5C6CB" p-id="6955"></path><path d="M1113.136371 639.733444a162.436851 162.436851 0 0 1 2.558934 17.912537c-32.669055 6.390511-65.372228 12.646251-98.092462 18.765514 22.945106-8.095613 46.265523-16.76784 69.94419-26.015827a459.05566 459.05566 0 0 0 23.883382-11.515202c0.580025 0.309631 1.15152 0.593673 1.705956 0.852978z" fill="#C6C7CB" p-id="6956"></path><path d="M349.721127 662.763848c-3.536446 5.206577-8.370272 6.770086-14.500624 4.691379-8.532338-5.541798-15.071267-12.79211-19.618493-21.750937 16.436885-4.292185 27.809639 1.394619 34.119117 17.059558zM488.756529 649.116202c-4.412455 8.534044-10.951384 14.931379-19.618492 19.192003-5.639037 0.729296-10.187968-1.119107-13.647647-5.544357 7.037068-14.757371 18.125781-19.306302 33.266139-13.647646z" fill="#242D44" p-id="6957"></path><path d="M893.921044 657.645981c0.076768 0.849566-0.213244 1.560097-0.852978 2.132445a192.260372 192.260372 0 0 0-15.353603 7.250312c-0.844448-0.146712-1.415943 0.138182-1.705955 0.852978a42.390444 42.390444 0 0 0-11.515202 5.117868c-0.034119-1.76737 0.39237-3.473326 1.279466-5.117868a3331.902374 3331.902374 0 0 1 7.676802-10.235735 54.340665 54.340665 0 0 0 5.970845-5.544357c6.985889-4.485811 11.813744-2.637408 14.500625 5.544357z" fill="#272E44" p-id="6958"></path><path d="M743.796929 655.940025c30.125474 1.700838 60.547785 2.268921 91.268638 1.705956v0.852978h-92.121616c-0.202156-1.101195 0.081886-1.954172 0.852978-2.558934z" fill="#7A7F8C" p-id="6959"></path><path d="M893.921044 657.645981h18.765514c2.183623 2.702234 3.036601 5.829251 2.558934 9.382757h-37.531029a192.260372 192.260372 0 0 1 15.353603-7.250312c0.639733-0.572348 0.929746-1.282879 0.852978-2.132445z" fill="#83868D" p-id="6960"></path><path d="M912.686558 657.645981h26.442316c0.562965 3.38291 0.852978 6.794822 0.852978 10.235735h-63.973344c0.290012-0.714796 0.861508-0.99969 1.705955-0.852978h37.531029c0.477668-3.553506-0.37531-6.680523-2.558934-9.382757z" fill="#ACAFB7" p-id="6961"></path><path d="M842.742368 703.706789l-11.088713 58.002499c-18.136017 0.563818-36.332595 0.848713-54.590587 0.852978-18.205961 0-36.118497-0.568936-53.737609-1.705956a6579.05542 6579.05542 0 0 1 17.912536-92.121616 2748.283788 2748.283788 0 0 1 96.386506-0.852978 308.33702 308.33702 0 0 0 5.970845 31.560183 17.24892 17.24892 0 0 0-0.852978 4.26489z" fill="#FEFEFE" p-id="6962"></path><path d="M849.566192 668.734694a43.987219 43.987219 0 0 1-0.852978 5.970845c-0.87942-2.099179-1.448357-4.373218-1.705956-6.823823 1.101195-0.202156 1.954172 0.081886 2.558934 0.852978z" fill="#F2F2F3" p-id="6963"></path><path d="M858.948949 667.881716a260.43122 260.43122 0 0 0-5.117868 29.001249c-0.526287 0.094681-0.952776 0.378722-1.279466 0.852978-1.336616-7.676801-2.616083-15.353603-3.838401-23.030404a43.987219 43.987219 0 0 0 0.852978-5.970845c3.040013-0.787299 6.16703-1.07134 9.382757-0.852978z" fill="#262D43" p-id="6964"></path><path d="M858.948949 667.881716h6.823823c-0.887097 1.644541-1.313586 3.350497-1.279466 5.117868a42.390444 42.390444 0 0 1 11.515202-5.117868h63.973344c3.991937 24.804598 8.964798 49.540958 14.927114 74.20908 3.266905 0.246511 6.397334-0.606467 9.382757-2.558934a83.361533 83.361533 0 0 0 2.132445-9.382757 328.348735 328.348735 0 0 1 6.823823 32.413161h-3.411912c-1.407414-9.670211-6.525281-12.08755-15.353602-7.250313a159.278274 159.278274 0 0 0-13.647647 8.103291h-75.915035a1926.19134 1926.19134 0 0 0-11.941691-63.546856 12.095227 12.095227 0 0 0 0.852977-2.985423 260.43122 260.43122 0 0 1 5.117868-29.001249z" fill="#FDFEFE" p-id="6965"></path><path d="M971.542035 702.853811c4.725498 25.325768 9.553353 50.630211 14.500625 75.915035v3.411912l-8.529779-0.852978a67.230867 67.230867 0 0 1-1.705956-8.529779c-14.065606-0.709678-28.284748-1.136167-42.648896-1.279467 0.77621-2.059942 2.200683-3.339409 4.264889-3.838401 10.721933 0.181684 21.529163-0.671294 32.413161-2.558933v-2.558934h3.411912a328.348735 328.348735 0 0 0-6.823823-32.413161 491.096923 491.096923 0 0 1 5.117867-27.295294z" fill="#83868E" p-id="6966"></path><path d="M358.250907 713.089546c0.796681 0.91098 1.081576 2.048 0.852977 3.411912h49.47272a1706.115359 1706.115359 0 0 1-5.970845 43.501874 6919.386789 6919.386789 0 0 0-20.897959 142.447314 75.398131 75.398131 0 0 1-15.780092 0.852977 5934.017306 5934.017306 0 0 0-7.676801-190.214077z" fill="#DADBE0" p-id="6967"></path><path d="M408.576604 716.501458h40.089963a18280.342231 18280.342231 0 0 0-20.471471 186.802165h-11.088713l-14.500624-143.300291a1706.115359 1706.115359 0 0 0 5.970845-43.501874z" fill="#BABABF" p-id="6968"></path><path d="M847.860236 725.031237a19406.663757 19406.663757 0 0 1 38.384007 193.625989c-25.162849 0.852978-50.46388 1.134461-75.915036 0.852978v-2.558934a14297.481223 14297.481223 0 0 1 37.531029-191.920033z" fill="#FDFDFD" p-id="6969"></path><path d="M969.836079 762.562266v2.558934c-10.883998 1.88764-21.691229 2.740618-32.413161 2.558933 1.134461-1.421914 2.277451-2.842975 3.411912-4.264889a159.278274 159.278274 0 0 1 13.647647-8.103291c8.828322-4.837238 13.946189-2.419898 15.353602 7.250313z" fill="#272F44" p-id="6970"></path><path d="M723.325459 760.85631c17.619112 1.13702 35.531648 1.705956 53.737609 1.705956 18.257993-0.004265 36.454571-0.28916 54.590587-0.852978-36.098026 1.701691-72.492035 2.269774-109.181174 1.705956-0.202156-1.101195 0.081886-1.954172 0.852978-2.558934z" fill="#CFD1D6" p-id="6971"></path><path d="M720.766525 771.945023h108.328197a4723.283379 4723.283379 0 0 1-18.765515 95.533528c-36.10485 0.852978-72.213964 1.134461-108.328196 0.852978a7198.502491 7198.502491 0 0 1 18.765514-96.386506z" fill="#FDFDFD" p-id="6972"></path><path d="M975.806925 772.798001a67.230867 67.230867 0 0 0 1.705956 8.529779c5.842899 28.915952 11.242249 57.917201 16.20658 87.003749-35.825073 0.145006-71.650146 0-107.475218-0.426489-6.312037-31.664247-12.572895-63.366877-18.765515-95.107039h108.328197z" fill="#FEFEFE" p-id="6973"></path><path d="M700.295055 877.714286c35.964108-0.852978 72.074076-1.134461 108.328196-0.852978 0.242246 1.629188-0.041796 3.053661-0.852978 4.264889v-3.411911h-107.475218z" fill="#7A7F8C" p-id="6974"></path><path d="M700.295055 877.714286h107.475218v3.411911a1095.14433 1095.14433 0 0 1-7.676801 37.531029c-36.121056 0.562965-71.946129-0.00853-107.475218-1.705956a540.486904 540.486904 0 0 1 7.676801-39.236984zM1003.955196 918.657226c0.221774 1.262407-0.059708 2.396868-0.852977 3.411912-35.500941-1.381824-71.036002-1.953319-106.622241-1.705956-2.951304-14.193553-5.79172-28.404165-8.529779-42.648896h108.328196c2.772178 13.596468 5.331112 27.244115 7.676801 40.94294z" fill="#FEFEFE" p-id="6975"></path><path d="M391.517046 921.21616a49.903474 49.903474 0 0 1 5.970845 5.970845c-1.421914 0.281483-2.842975 0.571495-4.264889 0.852978-9.390434-1.134461-18.773191-2.277451-28.148272-3.411911v-4.26489c0.150124-4.62314 2.424163-7.182074 6.823823-7.676801 7.277608 1.219758 13.817389 4.068705 19.618493 8.529779z" fill="#262E44" p-id="6976"></path><path d="M440.136787 920.363182a79.861764 79.861764 0 0 1 7.250313 6.823823c0.50411 0.835918 0.219215 1.407414-0.852978 1.705956a216.365528 216.365528 0 0 0-31.986672-3.411911v-4.26489c1.145549-8.393303 5.694481-10.81576 13.647646-7.250312 4.139502 1.92773 8.119497 4.060175 11.941691 6.397334z" fill="#283045" p-id="6977"></path><path d="M692.618254 916.95127c35.52909 1.697426 71.354162 2.268921 107.475218 1.705956-0.73612 2.047147-0.73612 4.034586 0 5.970846a37.79204 37.79204 0 0 0 8.529779 1.705955c-0.059708-3.343673 0.509228-6.474102 1.705956-9.382757v2.558934c25.451155 0.281483 50.752187 0 75.915036-0.852978 0.588555 2.490696 1.305056 5.049629 2.132444 7.676801 2.925714-0.76768 5.911137-1.330646 8.956269-1.705955-0.110887-1.467122-0.39237-2.883065-0.852978-4.26489 35.586239-0.247364 71.121299 0.324132 106.622241 1.705956 0.793269-1.015044 1.074752-2.149504 0.852977-3.411912 0.588555 2.490696 1.305056 5.049629 2.132445 7.676801 2.925714-0.76768 5.911137-1.330646 8.956268-1.705955v-2.558934c23.900441 0.545906 47.783823 1.53536 71.650146 2.985423 7.523265 0.315602 14.918584 1.458592 22.177426 3.411911a63.935813 63.935813 0 0 1-12.794669 2.558934c-67.61556 3.787222-135.282299 5.78319-203.008746 5.970846a16573.059998 16573.059998 0 0 1-407.723448 0 5377.11996 5377.11996 0 0 1-163.771762-4.26489 468.081873 468.081873 0 0 1-32.413161-2.558934c-6.13547-0.673853-6.419512-1.808313-0.852978-3.411912a778.026756 778.026756 0 0 1 75.915035-3.8384c-0.202156-1.100342 0.081886-1.953319 0.852978-2.558934v4.26489c9.37508 1.134461 18.757838 2.277451 28.148272 3.411911 1.421914-0.281483 2.842975-0.571495 4.264889-0.852978a49.903474 49.903474 0 0 0-5.970845-5.970845h23.030404v4.26489c10.750934 0.341191 21.413158 1.484182 31.986672 3.411911 1.072193-0.298542 1.357088-0.870037 0.852978-1.705956a79.861764 79.861764 0 0 0-7.250313-6.823823c80.74289-1.262407 161.491752-1.825373 242.245731-1.705956-0.73612 2.047147-0.73612 4.034586 0 5.970846a37.79204 37.79204 0 0 0 8.52978 1.705955c-0.059708-3.343673 0.509228-6.474102 1.705956-9.382757z" fill="#EAEBF0" p-id="6978"></path></svg>